<?xml version="1.0" standalone="no"?>
<!DOCTYPE svg PUBLIC "-//W3C//DTD SVG 20010904//EN"
 "http://www.w3.org/TR/2001/REC-SVG-20010904/DTD/svg10.dtd">
<svg version="1.0" xmlns="http://www.w3.org/2000/svg"
 width="300.000000pt" height="300.000000pt" viewBox="0 0 300.000000 300.000000"
 preserveAspectRatio="xMidYMid meet">
<metadata>
Created by potrace 1.10, written by Peter Selinger 2001-2011
</metadata>
<g transform="translate(0.000000,300.000000) scale(0.100000,-0.100000)"
fill="#000000" stroke="none">
<path d="M324 2600 c-11 -4 -33 -22 -47 -40 l-27 -32 0 -1029 0 -1029 34 -38
34 -37 826 -3 c932 -3 871 -8 907 74 18 40 20 65 18 285 l-1 241 338 516 c352
536 363 557 334 612 -13 24 -192 144 -229 153 -13 3 -39 0 -58 -8 -27 -12 -60
-55 -186 -247 -84 -128 -163 -250 -176 -270 -12 -21 -23 -38 -24 -38 -1 0 -1
174 1 386 4 433 1 457 -62 495 -30 18 -61 19 -846 18 -448 0 -824 -4 -836 -9z
m1657 -77 c11 -13 15 -102 17 -464 l3 -448 -134 -203 c-73 -112 -136 -209
-141 -216 -9 -15 -76 -395 -76 -433 0 -15 7 -29 15 -33 9 -3 79 36 175 99
l160 105 0 -213 c0 -176 -3 -216 -16 -235 l-15 -22 -809 0 c-722 0 -810 2
-824 16 -14 14 -16 120 -16 1024 0 904 2 1010 16 1024 14 14 102 16 823 16
740 0 810 -1 822 -17z m598 -349 c137 -83 143 -95 81 -189 -22 -32 -41 -63
-43 -68 -3 -9 -136 73 -214 131 l-32 24 50 74 c27 41 57 74 66 74 8 0 50 -21
92 -46z m-136 -220 c55 -36 106 -68 113 -71 8 -3 14 -9 14 -13 0 -5 -26 -48
-58 -97 -32 -48 -154 -235 -271 -414 l-214 -326 -101 69 c-56 39 -107 76 -115
83 -11 11 7 44 111 201 68 104 189 289 268 411 80 122 147 223 149 223 2 0 49
-30 104 -66z m-565 -904 c55 -36 101 -67 101 -70 1 -3 -18 -16 -42 -29 -23
-13 -82 -51 -131 -83 -49 -32 -90 -57 -92 -55 -2 2 5 46 15 98 11 51 22 120
26 152 4 32 11 57 15 55 3 -2 52 -32 108 -68z m147 -40 c8 -13 -7 -70 -16 -64
-5 3 -9 18 -9 33 0 15 -5 32 -11 38 -9 9 -6 10 10 6 12 -3 23 -9 26 -13z"/>
<path d="M457 2438 c-9 -7 -17 -22 -18 -33 -1 -11 -1 -446 -1 -967 2 -751 5
-948 15 -948 9 0 12 194 10 941 -1 558 2 950 7 965 l10 24 746 0 c592 0 745 3
742 13 -7 18 -1486 23 -1511 5z"/>
<path d="M652 2023 c-22 -43 -28 -43 563 -43 511 0 563 2 569 16 17 44 13 44
-570 44 -517 0 -554 -1 -562 -17z"/>
<path d="M1797 1960 l-5 -20 -555 2 c-305 2 -553 0 -550 -4 2 -5 256 -8 564
-8 499 0 560 2 566 16 3 8 1 20 -4 25 -7 7 -12 3 -16 -11z"/>
<path d="M684 1735 c-4 -8 -4 -22 0 -30 5 -13 74 -15 568 -13 l563 3 0 25 0
25 -563 3 c-494 2 -563 0 -568 -13z"/>
<path d="M1835 1690 c5 -8 1 -18 -10 -26 -21 -16 -14 -30 10 -21 18 7 20 43 3
53 -7 5 -8 3 -3 -6z"/>
<path d="M693 1443 c-23 -9 -15 -52 10 -58 12 -3 265 -4 561 -3 490 3 540 5
549 20 8 12 7 21 -2 32 -12 14 -73 16 -560 15 -300 0 -552 -3 -558 -6z"/>
<path d="M2494 2182 c-13 -8 -74 -102 -74 -114 0 -21 23 -3 60 45 47 63 54 95
14 69z"/>
<path d="M2329 1932 c-9 -15 -121 -187 -249 -382 -128 -195 -234 -360 -237
-367 -3 -7 2 -10 14 -7 10 3 60 67 110 142 206 310 313 474 313 478 0 3 5 10
11 17 5 7 19 27 30 45 10 18 26 35 34 38 9 4 43 -12 78 -35 60 -39 97 -51 97
-32 0 7 -47 40 -160 114 -24 16 -26 15 -41 -11z"/>
<path d="M1791 993 c-7 -37 -14 -79 -17 -93 l-5 -25 16 22 c21 30 41 141 27
155 -6 6 -13 -14 -21 -59z"/>
</g>
</svg>
